<svg width="59" height="61" viewBox="0 0 59 61" fill="none" xmlns="http://www.w3.org/2000/svg">
<path d="M17.424 35.8509C21.7943 34.7807 25.8197 34.2456 29.5 34.2456C33.1803 34.2456 37.2057 34.7807 41.576 35.8509C45.9464 36.9211 49.9142 38.7047 53.4795 41.2018C57.1598 43.6988 59 46.4932 59 49.5848V61H0V49.5848C0 46.4932 1.78265 43.6988 5.34795 41.2018C9.02826 38.7047 13.0536 36.9211 17.424 35.8509ZM19.1491 4.63743C22.0244 1.54581 25.4747 0 29.5 0C33.5253 0 36.9756 1.54581 39.8509 4.63743C42.7261 7.61014 44.1637 11.1774 44.1637 15.3392C44.1637 19.501 42.7261 23.0682 39.8509 26.0409C36.9756 29.0136 33.5253 30.5 29.5 30.5C25.4747 30.5 22.0244 29.0136 19.1491 26.0409C16.2739 23.0682 14.8363 19.501 14.8363 15.3392C14.8363 11.1774 16.2739 7.61014 19.1491 4.63743ZM44.5088 44.5906C39.5634 42.5692 34.5604 41.5585 29.5 41.5585C24.4396 41.5585 19.4366 42.5692 14.4912 44.5906C9.54581 46.4932 7.0731 48.1579 7.0731 49.5848V53.6871H51.9269V49.5848C51.9269 48.1579 49.4542 46.4932 44.5088 44.5906ZM35.0205 9.63158C33.5253 8.08577 31.6852 7.31287 29.5 7.31287C27.3148 7.31287 25.4747 8.08577 23.9795 9.63158C22.4844 11.1774 21.7368 13.0799 21.7368 15.3392C21.7368 17.5984 22.4844 19.501 23.9795 21.0468C25.4747 22.4737 27.3148 23.1871 29.5 23.1871C31.6852 23.1871 33.5253 22.4737 35.0205 21.0468C36.5156 19.501 37.2632 17.5984 37.2632 15.3392C37.2632 13.0799 36.5156 11.1774 35.0205 9.63158Z" fill="#666666"/>
</svg>
